<svg width="20" height="20" viewBox="0 0 20 20" fill="none" xmlns="http://www.w3.org/2000/svg">
<g clip-path="url(#clip0_81_4064)">
<path d="M13.9766 9.99973L10.4407 6.4639C10.1153 6.13851 10.1153 5.61095 10.4407 5.28556C10.7661 4.96018 11.2937 4.96018 11.6191 5.28556L15.6261 9.29262C16.0166 9.68315 16.0166 10.3163 15.6261 10.7068L11.6191 14.7139C11.2937 15.0393 10.7661 15.0393 10.4407 14.7139C10.1153 14.3885 10.1153 13.861 10.4407 13.5356L13.9766 9.99973Z" fill="#232635"/>
<path d="M7.97656 9.99973L4.44073 6.4639C4.11534 6.13851 4.11534 5.61095 4.44073 5.28556C4.76612 4.96018 5.29367 4.96018 5.61906 5.28556L9.62612 9.29262C10.0166 9.68315 10.0166 10.3163 9.62612 10.7068L5.61906 14.7139C5.29367 15.0393 4.76612 15.0393 4.44073 14.7139C4.11534 14.3885 4.11534 13.861 4.44073 13.5356L7.97656 9.99973Z" fill="#232635"/>
</g>
<defs>
<clipPath id="clip0_81_4064">
<rect width="20" height="20" fill="white"/>
</clipPath>
</defs>
</svg>
